PathFileType	4	(X/Y/Z)	pose_F01_0-65.trc
DataRate	CameraRate	NumFrames	NumMarkers	Units	OrigDataRate	OrigDataStartFrame	OrigNumFrames
30	30	5	21	m	30	54	65
Frame#	Time	CHip			RHip			RKnee			RAnkle			RBigToe			RSmallToe			RHeel			LHip			LKnee			LAnkle			LBigToe			LSmallToe			LHeel			Neck			Nose			RShoulder			RElbow			RWrist			LShoulder			LElbow			LWrist			
		X1	Y1	Z1	X2	Y2	Z2	X3	Y3	Z3	X4	Y4	Z4	X5	Y5	Z5	X6	Y6	Z6	X7	Y7	Z7	X8	Y8	Z8	X9	Y9	Z9	X10	Y10	Z10	X11	Y11	Z11	X12	Y12	Z12	X13	Y13	Z13	X14	Y14	Z14	X15	Y15	Z15	X16	Y16	Z16	X17	Y17	Z17	X18	Y18	Z18	X19	Y19	Z19	X20	Y20	Z20	X21	Y21	Z21	
54	1.8	-0.18783859252713186	1.8372766628437533	-0.5803565102341168	-0.20154385238167277	1.8343382017517673	-0.5132262972569828	-0.2131358586140845	1.7169924850859615	-0.49830259084053175	-0.2852641586709868	1.5994259955851917	-0.3900052099100851	-0.5678911029948313	1.5532928402829176	-1.23825111304939	-0.5859414310925272	1.5603427942711092	-1.2203756500684597	-0.35100676133082404	1.6729085277491074	-0.30257986526033515	-0.171177669464393	1.8362782126171528	-0.6406614931237501	-0.17146071822261738	1.7215026877005044	-0.5989656066781371	-0.17070187306721873	1.6060918970267908	-0.5834638036329551	-0.18424746197707983	1.5744584170593856	-0.6349348930765168	-0.17372745119058333	1.587349926195881	-0.6465464639194204	-0.1716589965323002	1.5950488885692513	-0.5681158195602911	-1.594593392438185	1.8895537369825328	0.9461182841254484	-0.18859019688244258	2.045293254006529	-0.635359738683873	-0.20066746946118827	1.9761019888683227	-0.50229024756477	-0.2079335174949937	1.8990567487880476	-0.4568015354658424	-0.2247096555063268	1.8345737811069254	-0.4562803465117604	-0.15624669957530965	1.983854590122515	-0.6879393601836534	-0.1467850952138734	1.9061326879163811	-0.710381511253873	-0.1348208272971602	1.8414519813606463	-0.7372248076744421
55	1.8333333333333333	-0.1839442934896285	1.843363549274265	-0.5767249690534453	-0.19848575506317037	1.8394049484979755	-0.5127970400052413	-0.20970199174701387	1.719093899099663	-0.49115912256273214	-0.2852641586709868	1.5994259955851917	-0.3900052099100851	-0.5678911029948313	1.5532928402829176	-1.23825111304939	-0.5859414310925272	1.5603427942711092	-1.2203756500684597	-0.35100676133082404	1.6729085277491074	-0.30257986526033515	-0.16892938213556635	1.8418649063308705	-0.6435740781063465	-0.1718914007897437	1.7240701345328109	-0.5987871983510142	-0.17073444149777828	1.6063730239883438	-0.5834348289160463	-0.18605879054387717	1.5756870220134114	-0.6331932028325413	-0.1734369235727843	1.585911590329111	-0.6467317555831765	-0.170682986364191	1.5949497869169629	-0.5648039010547774	-1.570295957159669	1.889800104770667	0.9070716747476291	-0.18942939416345567	2.0453050487955777	-0.6383845659828616	-0.19941937069095073	1.9788988341331355	-0.5078052064449834	-0.20985269432471731	1.9065743273025655	-0.46431646745462274	-0.22364276353663515	1.8451384411905452	-0.4450155184454866	-0.1556495307247085	1.9851396116482025	-0.6965233398568788	-0.1352665323526548	1.9122992846733853	-0.7229179054897531	-0.13258353285907762	1.8483972626851912	-0.743772533181727
56	1.8666666666666667	-0.1858993051090653	1.8415281675438926	-0.582955713726544	-0.19855146344936433	1.8369334466870948	-0.5125962091355747	-0.2085543701970096	1.7178162075403403	-0.49084906699352576	-0.2852641586709868	1.5994259955851917	-0.3900052099100851	-0.5678911029948313	1.5532928402829176	-1.23825111304939	-0.5859414310925272	1.5603427942711092	-1.2203756500684597	-0.35100676133082404	1.6729085277491074	-0.30257986526033515	-0.1690359645536215	1.8388040722396062	-0.643323358831754	-0.17168060744550057	1.7223830634611614	-0.5988144874180363	-0.17094611689235392	1.6045884485753237	-0.5829145609663184	-0.1855286109185072	1.5745403540500456	-0.6294423829238307	-0.17377066503662802	1.584408473420695	-0.6460490417058088	-0.17177353860960476	1.5931701937865497	-0.5675086176092673	-1.5811377381994942	1.88989937424314	0.9249487746465953	-0.1894502936890798	2.0450810898474576	-0.6385656550725503	-0.20043073604943776	1.9777092774580476	-0.5110245299139977	-0.21078882447678302	1.9013950473625016	-0.4670795749826223	-0.2184541242960534	1.834988260711438	-0.4182337695668146	-0.15258498545400975	1.9853782866942176	-0.6956691177870858	-0.13333595263331516	1.9096732665656546	-0.7248889604869678	-0.1339577216808238	1.8440509341076297	-0.7462376600497926
57	1.9	-0.18530322429224325	1.841041821405957	-0.5834308123423295	-0.19795277062284578	1.8392559294906443	-0.5133127885013304	-0.20740674864700528	1.7165385159810178	-0.49053901142431944	-0.2852641586709868	1.5994259955851917	-0.3900052099100851	-0.5678911029948313	1.5532928402829176	-1.23825111304939	-0.5859414310925272	1.5603427942711092	-1.2203756500684597	-0.35100676133082404	1.6729085277491074	-0.30257986526033515	-0.1664545382217932	1.8399219467850172	-0.646124848722734	-0.17121426395043096	1.7224742556646664	-0.5993013904496091	-0.17045106967746187	1.6046660259251817	-0.5836807170248537	-0.1844925016057159	1.5752969641252432	-0.6349560711109863	-0.1738766386324991	1.5851836330316809	-0.6462585400107064	-0.17048917287250398	1.5939569431704248	-0.5647972867861497	-1.568074209469994	1.889935609047974	0.9044555399002505	-0.19024013242864862	2.044895703825607	-0.6415611827326183	-0.20028105592285952	1.9791005074236387	-0.5111680053143627	-0.20678561851551233	1.8997434760343404	-0.47125767100600974	-0.2111595080336579	1.8384766606628289	-0.4221876611675174	-1.3509049780882791	1.8912794616590771	0.568043594093942	-0.13790042107045977	1.9103306514913518	-0.7205336920074231	-0.137974823547202	1.8421126019169753	-0.7381716692937523
58	1.9333333333333333	-0.18653903825499102	1.8400284300864982	-0.5862475423045677	-0.1972743718215716	1.839001608478602	-0.5183537793060046	-0.206259127097001	1.7152608244216951	-0.49022895585511306	-0.2852641586709868	1.5994259955851917	-0.3900052099100851	-0.5678911029948313	1.5532928402829176	-1.23825111304939	-0.5859414310925272	1.5603427942711092	-1.2203756500684597	-0.35100676133082404	1.6729085277491074	-0.30257986526033515	-0.1674881238359656	1.8407504339539762	-0.6489336599907646	-0.1720058831257617	1.7223415144913796	-0.5983705185692412	-0.17251890993924654	1.6046208491514202	-0.5815304359956194	-0.18648776872369982	1.5747463113661755	-0.6326553745845337	-0.1738436161014254	1.5847069578172428	-0.6461150468693846	-0.171542224133237	1.5944265899809553	-0.5680457024561568	-1.557000592569529	1.8900787465882538	0.8862465832807331	-0.18834142532666262	2.0437687779558273	-0.6438425267979972	-1.750110580452622	1.8883443839648766	1.1962709052129568	-0.20475879385309279	1.902330393691292	-0.4739594323669502	-0.21028810128780484	1.8379746785466426	-0.4277781798510052	-0.1490486430782445	1.986017379076726	-0.7033381421286712	-0.14014546998025607	1.9106945145733505	-0.7182447933702828	-0.15011896931851396	1.8453688079892125	-0.7299317790519864
